<svg id="SvgjsSvg1001" width="100%" height="100%" xmlns="http://www.w3.org/2000/svg" version="1.1" xlink="http://www.w3.org/1999/xlink" xmlns:svgjs="http://svgjs.com/svgjs" preserveAspectRatio="xMidYMid meet" viewBox="0 0 145.67117309570312 147.00001525878906" overflow="visible"><defs id="SvgjsDefs1002"></defs><g id="SvgjsG1008" transform="scale(0.4018958548406852)" opacity="1"><g id="SvgjsG1009" class="C_8XZUaxh" transform="translate(28.996800000000007, 0) scale(3.044664)" light-content="false" non-strokable="false" fill="#51f590"><path d="M24 0h76v76c0 13.255-10.745 24-24 24H0V24C0 10.745 10.745 0 24 0z"></path></g><g id="SvgjsG1010" class="OMgYLlmwQ_" transform="translate(59.632184863094835, 30.62816657184402) scale(2.4321744751272587)" light-content="true" non-strokable="false" fill="#ffffff"><path d="M80.359 43.016c-4.71 0-8.645 3.375-9.52 7.836l-16.648-2.785a10.938 10.938 0 0 0-2.46-8.594l15.316-13.527a5.902 5.902 0 0 0 4.25 1.805c.097 0 .191-.004.289-.008h.007a5.924 5.924 0 0 0 5.622-5.914 5.928 5.928 0 0 0-3.016-5.157c-.004-.003-.008-.003-.016-.007a5.894 5.894 0 0 0-3.41-.735h-.008a5.93 5.93 0 0 0-5.367 5.364c0 .004-.004.011-.004.015a5.891 5.891 0 0 0 1.29 4.23l-15.32 13.524a10.93 10.93 0 0 0-8.036-3.512 10.88 10.88 0 0 0-6.441 2.098l-8.89-11.625a7.543 7.543 0 0 0 2.683-4.852c.004-.008.004-.012.004-.02a7.497 7.497 0 0 0-.465-3.707 7.537 7.537 0 0 0-1.621-2.503c-.004-.004-.004-.008-.008-.012s-.008-.004-.012-.008a7.53 7.53 0 0 0-2.465-1.672l-.03-.012a7.509 7.509 0 0 0-2.88-.57c-4.156 0-7.539 3.383-7.539 7.54 0 1.019.203 1.995.574 2.886.004.004.004.012.008.02.39.93.961 1.765 1.668 2.464.004.004.004.012.012.016a.082.082 0 0 1 .023.015 7.595 7.595 0 0 0 2.496 1.618l.04.015a7.497 7.497 0 0 0 3.671.45h.004c.008 0 .012-.004.02-.004a7.498 7.498 0 0 0 3.39-1.332l8.895 11.625a10.952 10.952 0 0 0-4.098 8.539c0 2.746 1.02 5.261 2.692 7.187l-12.2 11.133a4.663 4.663 0 0 0-.285-.273c-.003-.008-.007-.012-.007-.016-.004-.004-.012-.008-.02-.012a7.62 7.62 0 0 0-2.629-1.554 7.531 7.531 0 0 0-2.441-.407c-4.156 0-7.54 3.383-7.54 7.54 0 .855.145 1.671.407 2.437a7.503 7.503 0 0 0 1.555 2.625c.004.008.008.016.015.02.004.003.012.007.016.011a7.63 7.63 0 0 0 2.383 1.742l.023.012a7.475 7.475 0 0 0 3.453.68h.004c3.906-.16 7.055-3.309 7.219-7.219.004-.105.008-.21.008-.316a7.461 7.461 0 0 0-.688-3.14c-.004-.009-.004-.017-.007-.02a7.718 7.718 0 0 0-1.098-1.715l12.199-11.133a10.94 10.94 0 0 0 11.652 2.722l7.5 19.18a5.926 5.926 0 0 0-3.511 5.407c0 3.261 2.652 5.918 5.918 5.918s5.921-2.657 5.921-5.918a5.928 5.928 0 0 0-7.824-5.61l-7.504-19.176c3.328-1.402 5.825-4.402 6.52-8.035l16.652 2.785a9.42 9.42 0 0 0-.094 1.332c0 5.352 4.352 9.7 9.7 9.7 5.347 0 9.698-4.352 9.698-9.7.004-5.34-4.343-9.691-9.695-9.691zm-8.02-15.91l4.239-4.238a5.393 5.393 0 0 1-4.239 4.238zm-2.355-10.492l-3.902 3.902a5.394 5.394 0 0 1 3.902-3.902zm-3.527 7.559a5.333 5.333 0 0 1-.535-2.34c0-.137.007-.27.015-.403l4.961-4.957a5.332 5.332 0 0 1 2.742.52l-.918.918a.271.271 0 0 0 0 .383.272.272 0 0 0 .383 0l1.027-1.028c.66.41 1.227.961 1.657 1.61l-1.09 1.086a.271.271 0 0 0 0 .383.27.27 0 0 0 .383 0l.988-.989c.39.742.61 1.586.61 2.48 0 .06-.005.118-.005.18l-5.195 5.196c-.059.004-.117.004-.18.004a5.356 5.356 0 0 1-2.48-.61l4.473-4.472a.271.271 0 0 0-.383-.383l-4.574 4.574a5.383 5.383 0 0 1-1.61-1.656l4.113-4.113a.271.271 0 0 0-.382-.383zM21.719 13.372l-5.344 5.343a7.023 7.023 0 0 1 5.344-5.343zm-3.207 12.023l4.507-4.508a.271.271 0 0 0-.382-.383l-4.512 4.512a7.048 7.048 0 0 1-1.309-1.953l3.75-3.75a.271.271 0 0 0-.382-.383l-3.586 3.586a6.931 6.931 0 0 1-.368-2.899l6.38-6.379c.195-.015.394-.027.593-.027.809 0 1.582.14 2.305.39l-3.067 3.067a.271.271 0 0 0 0 .383.272.272 0 0 0 .383 0l3.23-3.23a7.01 7.01 0 0 1 1.958 1.308l-3.59 3.59a.271.271 0 0 0 0 .383.272.272 0 0 0 .383 0l3.586-3.586c.527.582.96 1.254 1.27 1.992l-9.161 9.16a7.14 7.14 0 0 1-1.988-1.273zm6.472 1.59l.387-.387a.271.271 0 0 0-.383-.383l-.945.945a6.962 6.962 0 0 1-2.973-.29l8.809-8.807a6.962 6.962 0 0 1 .289 2.972l-3.3 3.3a.271.271 0 0 0 0 .384.272.272 0 0 0 .382 0l2.742-2.742a7.062 7.062 0 0 1-5.008 5.007zM10.48 70.112c0-3.05 1.965-5.652 4.696-6.605l-3.446 3.445a.271.271 0 0 0 0 .383.272.272 0 0 0 .383 0l4.102-4.102a6.96 6.96 0 0 1 3.129.137l-8.606 8.606a6.857 6.857 0 0 1-.258-1.864zm13.996 0c0 .067 0 .133-.004.2l-.644.644a.271.271 0 0 0 0 .383.272.272 0 0 0 .383 0l.191-.191a7.02 7.02 0 0 1-5.887 5.886l3.489-3.488a.271.271 0 0 0-.383-.383l-3.941 3.942c-.067.003-.133.007-.2.007-.91 0-1.777-.175-2.574-.492l9.082-9.082c.317.797.488 1.664.488 2.574zm-.726-3.101l-9.375 9.375a7.01 7.01 0 0 1-1.89-1.375l5.28-5.281a.271.271 0 0 0-.382-.383l-5.266 5.265a6.99 6.99 0 0 1-1.203-2.062l8.996-8.996a6.992 6.992 0 0 1 2.063 1.203l-2.715 2.715a.271.271 0 0 0 0 .383.272.272 0 0 0 .383 0l2.734-2.735a6.953 6.953 0 0 1 1.375 1.89zm19.586-28.668c2.34 0 4.449.988 5.941 2.57l-1.351 1.191a6.355 6.355 0 0 0-8.246-.804l-1.094-1.43a8.125 8.125 0 0 1 4.75-1.527zM35.16 46.52a8.155 8.155 0 0 1 3-6.325l1.094 1.434a6.362 6.362 0 0 0-2.293 4.894c0 1.555.558 2.985 1.492 4.094l-1.328 1.215a8.152 8.152 0 0 1-1.965-5.312zm8.176 8.175a8.156 8.156 0 0 1-5.852-2.472l1.328-1.211a6.355 6.355 0 0 0 6.59 1.535l.656 1.68a8.071 8.071 0 0 1-2.722.468zm3.226-.664l-.656-1.68a6.392 6.392 0 0 0 3.668-4.515l1.777.297a8.216 8.216 0 0 1-4.789 5.898zm4.875-6.43l-1.773-.296a6.344 6.344 0 0 0-1.379-4.797l1.352-1.191a8.133 8.133 0 0 1 1.8 6.285zM80.36 61.876c-5.05 0-9.16-4.11-9.16-9.16 0-.422.031-.837.09-1.243l1.602.27c-.043.32-.067.644-.067.976 0 4.157 3.383 7.54 7.54 7.54s7.538-3.383 7.538-7.54-3.382-7.539-7.539-7.539c-3.64 0-6.687 2.594-7.386 6.031l-1.598-.27c.828-4.202 4.543-7.382 8.984-7.382 5.051 0 9.16 4.11 9.16 9.16-.003 5.047-4.113 9.156-9.164 9.156z"></path></g><g id="SvgjsG1011" class="text" transform="translate(87.36000061035156, 364.8664) scale(1)" light-content="false" fill="#51f590"><path d="M-87.36 -37.5L-87.36 0L-65.82 0L-65.82 -7.38L-78.42 -7.38L-78.42 -37.5Z M-46.2 -7.38L-46.2 -15.42L-33.06 -15.42L-33.06 -22.08L-46.2 -22.08L-46.2 -30.12L-31.92 -30.12L-30.84 -37.5L-55.14 -37.5L-55.14 0L-30.9 0L-30.9 -7.38Z M1.98 0L11.94 0L0.36 -18.6L11.52 -37.5L1.8 -37.5L-4.62 -26.58L-11.46 -37.5L-21.42 -37.5L-10.2 -19.56L-21.84 0L-12.12 0L-5.28 -11.64Z M31.56 -7.38L31.56 -15.42L44.7 -15.42L44.7 -22.08L31.56 -22.08L31.56 -30.12L45.84 -30.12L46.92 -37.5L22.62 -37.5L22.62 0L46.86 0L46.86 -7.38Z M80.22 0L89.94 0L83.52 -13.44C85.12 -14.32 86.3 -15.65 87.06 -17.43C87.82 -19.21 88.2 -21.48 88.2 -24.24C88.2 -27.48 87.79 -30.06 86.97 -31.98C86.15 -33.9 84.85 -35.3 83.07 -36.18C81.29 -37.06 78.88 -37.5 75.84 -37.5L59.64 -37.5L59.64 0L68.58 0L68.58 -12.06L74.52 -12.06ZM68.58 -18.78L68.58 -30.12L75.6 -30.12C76.8 -30.12 77.64 -29.94 78.12 -29.58C78.6 -29.22 78.84 -28.56 78.84 -27.6L78.84 -21.3C78.84 -20.34 78.6 -19.68 78.12 -19.32C77.64 -18.96 76.8 -18.78 75.6 -18.78Z"></path></g><g id="SvgjsG1012" class="text" transform="translate(276.8100021362304, 364.8664015258789) scale(1)" light-content="false" fill="#0d0d0d"><path d="M-72.75 -6.6C-76.95 -6.6 -80.95 -7.16 -84.75 -8.28L-86.01 -0.9C-81.85 0.3 -77.23 0.9 -72.15 0.9C-68.55 0.9 -65.67 0.5 -63.51 -0.3C-61.35 -1.1 -59.77 -2.37 -58.77 -4.11C-57.77 -5.85 -57.27 -8.16 -57.27 -11.04C-57.27 -13.68 -57.69 -15.81 -58.53 -17.43C-59.37 -19.05 -60.74 -20.28 -62.64 -21.12C-64.54 -21.96 -67.11 -22.52 -70.35 -22.8L-75.87 -23.22L-75.87 -30.54C-74.51 -30.74 -72.81 -30.84 -70.77 -30.84C-68.89 -30.84 -67.17 -30.77 -65.61 -30.63C-64.05 -30.49 -62.31 -30.22 -60.39 -29.82L-59.25 -36.96C-63.57 -37.92 -67.95 -38.4 -72.39 -38.4C-75.67 -38.4 -78.25 -37.99 -80.13 -37.17C-82.01 -36.35 -83.38 -35.04 -84.24 -33.24C-85.1 -31.44 -85.53 -28.98 -85.53 -25.86C-85.53 -23.22 -85.13 -21.15 -84.33 -19.65C-83.53 -18.15 -82.2 -17.02 -80.34 -16.26C-78.48 -15.5 -75.85 -14.98 -72.45 -14.7L-66.93 -14.22L-66.93 -6.96C-68.77 -6.72 -70.71 -6.6 -72.75 -6.6Z M-30.63 0L-30.63 -30.12L-21.45 -30.12L-21.45 -37.5L-48.75 -37.5L-48.75 -30.12L-39.57 -30.12L-39.57 0Z M7.23 -7.2L9.21 0L18.15 0L7.77 -37.5L-5.97 -37.5L-16.35 0L-7.41 0L-5.43 -7.2ZM5.37 -13.86L-3.57 -13.86L0.63 -29.04L1.17 -29.04Z M41.37 0L41.37 -30.12L50.55 -30.12L50.55 -37.5L23.25 -37.5L23.25 -30.12L32.43 -30.12L32.43 0Z M70.29 -7.38L70.29 -15.42L83.43 -15.42L83.43 -22.08L70.29 -22.08L70.29 -30.12L84.57 -30.12L85.65 -37.5L61.35 -37.5L61.35 0L85.59 0L85.59 -7.38Z"></path></g></g></svg>
